<svg xmlns="http://www.w3.org/2000/svg" viewBox="0 -765 1000 924">
  <g transform="scale(1, -1)">
    <path d="M416 249 Q383 283 383 329 Q383 376 416 410 Q450 444 497 444 Q525 444 551 430 L551 738 L583 738 Q620 738 672 729 Q724 721 744 712 L709 658 Q664 672 613 675 L613 329 Q613 283 579 249 Q545 215 497 215 Q449 215 416 249 M221 453 Q201 439 178 439 Q147 439 125 461 Q104 483 104 512 Q104 544 126 565 Q148 587 177 587 Q211 587 233 562 Q255 537 251 506 L363 441 Q355 431 345 415 Q336 399 333 389 L221 453 M535 291 Q551 307 551 329 Q551 353 535 368 Q519 383 498 383 Q476 383 460 367 Q444 352 444 330 Q444 308 459 292 Q475 276 497 276 Q519 276 535 291 M125 94 Q104 117 104 145 Q104 175 125 196 Q147 218 178 218 Q202 218 221 205 L332 269 Q341 243 363 216 L251 152 Q254 119 232 95 Q211 71 178 71 Q146 71 125 94 M761 95 Q740 120 743 152 L631 216 Q639 224 648 240 Q658 257 661 267 L665 267 L774 205 Q793 219 816 219 Q848 219 869 196 Q890 174 890 144 Q890 113 868 92 Q846 71 816 71 Q782 71 761 95 M446 -92 Q424 -72 424 -40 Q424 -18 435 -0 Q447 19 467 27 L467 156 Q482 153 497 153 Q513 153 528 156 L528 27 Q548 18 559 -1 Q571 -21 571 -41 Q571 -70 550 -91 Q529 -113 498 -113 Q468 -113 446 -92 " />
  </g>
</svg>