<svg xmlns="http://www.w3.org/2000/svg" viewBox="0 -765 1000 924">
  <g transform="scale(1, -1)">
    <path d="M335 287 L335 582 Q335 626 357 663 Q379 701 416 723 Q454 745 498 745 Q545 745 585 721 Q625 698 648 658 Q672 618 672 571 L672 559 L611 498 L611 571 Q611 618 578 651 Q545 684 498 684 Q456 684 426 654 Q396 624 396 582 L396 465 L577 465 L517 404 L396 404 L396 284 L345 232 Q335 260 335 287 M128 -70 L837 640 L880 597 L171 -113 L128 -70 M229 239 Q223 289 223 359 L283 359 Q283 305 287 265 Q291 225 304 192 L258 145 Q236 189 229 239 M388 -83 L471 -83 L471 11 Q439 14 397 27 L446 77 Q477 70 502 70 Q563 70 612 96 Q661 122 684 159 Q706 194 713 240 Q720 287 720 350 L729 359 L781 359 Q781 284 772 228 Q763 173 735 127 Q704 75 648 46 Q593 17 532 11 L532 -83 L613 -83 L613 -144 L388 -144 L388 -83 M672 302 L672 298 Q672 251 648 211 Q625 171 585 148 Q545 125 498 125 L494 125 L672 302 " />
  </g>
</svg>